PathFileType	4	(X/Y/Z)	/Users/mathieubourgeois/Desktop/Analyse/Traitement/Sujet_08/Data/Transformed_Sujet_08_velo_100.trc
DataRate	CameraRate	NumFrames	NumMarkers	Units	OrigDataRate	OrigDataStartFrame	OrigNumFrames
120.000000	120.000000	4	35	mm	120.000000	1629	1862
Frame#	Time	RFHD			RANE			STRN			LANI			LKNE			T10			RHUM			RWRB			C7			LFWT			LTOE			RTOE			LWRA			LBWT			RBWT			RFWT			LKNI			RKNI			RKNE			LANE			RANI			LHEE			LHUM			LRAD			RRAD			RWRA			LWRB			LFHD			LBHD			RBHD			RSHO			LSHO			CLAV			LCAR			RCAR			
		X1	Y1	Z1	X2	Y2	Z2	X3	Y3	Z3	X4	Y4	Z4	X5	Y5	Z5	X6	Y6	Z6	X7	Y7	Z7	X8	Y8	Z8	X9	Y9	Z9	X10	Y10	Z10	X11	Y11	Z11	X12	Y12	Z12	X13	Y13	Z13	X14	Y14	Z14	X15	Y15	Z15	X16	Y16	Z16	X17	Y17	Z17	X18	Y18	Z18	X19	Y19	Z19	X20	Y20	Z20	X21	Y21	Z21	X22	Y22	Z22	X23	Y23	Z23	X24	Y24	Z24	X25	Y25	Z25	X26	Y26	Z26	X27	Y27	Z27	X28	Y28	Z28	X29	Y29	Z29	X30	Y30	Z30	X31	Y31	Z31	X32	Y32	Z32	X33	Y33	Z33	X34	Y34	Z34	X35	Y35	Z35	

1630	13.575	241.4706726074219	1501.415771484375	51.99936294555658	-210.9419250488282	262.6025695800781	176.2880554199218	-39.74766540527344	1157.877685546875	6.175522804260178	-135.1675262451172	628.7352905273438	-66.0039901733399	60.10356521606447	977.606201171875	-145.0718078613282	-189.4123382568359	1351.804443359375	17.32455253601064	139.4821319580078	1064.819213867188	203.2060089111328	336.1518249511718	906.2681274414062	254.11279296875	26.12788963317871	1428.3779296875	-4.473845481872642	-261.9396667480469	1107.535766601562	-90.49107360839854	-12.18115997314452	489.1058654785156	-104.080062866211	-40.2870330810547	153.9936676025391	135.9761505126953	355.6589965820312	938.3743896484375	-178.0789947509766	-395.3998413085938	1160.710205078125	-21.05968666076672	-383.2972106933594	1152.218627929688	110.7828674316405	-225.5811920166016	1085.821899414062	138.412384033203	44.87255477905274	912.125	-39.9552726745606	-112.7987976074219	602.7655029296875	78.48601531982416	-132.6578216552735	669.960205078125	187.0539245605468	-166.7677917480468	631.0059204101562	-150.1753692626954	-181.4898071289062	275.8382568359375	97.5869979858398	-219.3430938720703	623.787109375	-107.6059722900391	121.3616561889649	1051.2255859375	-195.7763366699219	161.8342742919922	1075.126586914062	-262.6369323730469	175.4689483642578	1086.45361328125	253.7515258789062	358.5567321777344	925.1083984375	186.2300720214844	331.3652648925781	889.5114135742188	-229.4300537109375	246.1516571044922	1512.388305664062	-74.74745178222663	91.17330932617189	1532.836669921875	-88.85165405273446	78.17626190185547	1538.404052734375	47.90616226196281	80.10799407958983	1357.070068359375	124.4692153930663	58.22051620483401	1346.688354492188	-152.9452667236329	69.84718322753906	1295.268920898438	-6.897292137146066	428.0166320800782	911.3396606445312	-255.0333099365234	435.6218566894531	911.9029541015625	274.6257934570312	
1631	13.58333333333333	241.9588165283203	1501.641235351562	51.4077415466308	-224.1524353027344	266.6134948730469	174.6478729248046	-39.40642166137695	1158.143676757812	6.30457735061638	-120.5962905883789	624.637939453125	-69.68119812011724	60.0531578063965	981.443359375	-143.0314941406251	-189.0477294921875	1352.375854492188	17.53968238830556	139.578384399414	1064.847412109375	203.4025268554687	336.1876831054687	906.1730346679688	254.2451477050781	26.47674560546875	1428.705810546875	-4.391949176788414	-262.2390747070312	1109.093017578125	-90.14422607421885	3.695349454879773	489.684814453125	-103.1765060424805	-55.86566543579103	153.3575592041016	135.6069488525391	355.8475036621094	938.3663330078125	-177.9204254150391	-395.3281860351562	1162.041259765625	-20.846893310547	-383.4312744140625	1153.1142578125	110.7532119750975	-225.7845306396485	1086.331665039062	138.6088867187499	45.8491439819336	914.7728271484375	-38.40995407104497	-114.3801040649414	603.2427368164062	78.12688446044916	-133.0668182373047	670.4931030273438	186.7007904052734	-154.6309051513672	626.4319458007812	-151.7442626953126	-194.0896759033203	278.9737854003906	95.97914886474605	-206.9437255859375	617.5457763671875	-110.5079727172852	121.6597213745117	1051.4052734375	-195.6135711669922	162.1843719482422	1075.276123046875	-262.4789428710938	175.575210571289	1086.443969726562	253.9466094970703	358.6197509765625	925.0809326171875	186.3828582763672	331.4934692382812	889.5863037109375	-229.3609313964844	246.4091949462891	1512.6318359375	-75.28810882568366	91.33953857421876	1532.98046875	-89.08097839355477	78.59134674072266	1538.69091796875	47.68495178222648	80.67038726806639	1357.181030273438	124.4518432617187	58.63359069824221	1346.96533203125	-152.9595794677735	70.19119262695312	1295.560424804688	-6.927006721496652	428.1588134765626	911.3114013671875	-254.9486999511719	435.6937561035156	911.7703247070312	274.7093200683594	
1632	13.59166666666667	242.3383941650391	1501.78515625	50.97031021118158	-236.9603424072266	272.3393859863281	172.9378509521484	-39.11727142333984	1158.406494140625	6.544633388519212	-110.8364562988281	619.3053588867188	-70.84020996093756	60.38564682006837	983.0848999023438	-140.8000030517579	-188.7882995605469	1352.911743164062	17.71799278259267	139.4803009033203	1064.838745117188	203.6443939208984	336.1315917968749	906.0889892578125	254.38671875	26.73363304138184	1428.9873046875	-4.198903083801354	-262.5699462890625	1110.570678710938	-89.79100036621104	20.90991020202638	490.2851257324219	-103.9914779663086	-71.94386291503908	155.3521881103516	136.3659057617188	355.9822692871094	938.350341796875	-177.7567596435547	-395.3708190917969	1163.28955078125	-20.60578346252453	-383.7171630859375	1153.91259765625	110.7183151245116	-226.1996307373047	1086.880859375	138.8521728515624	46.3609733581543	915.2587280273438	-36.95702362060552	-114.4391403198242	604.82080078125	77.72199249267572	-131.9353179931641	671.8340454101562	186.2590179443359	-142.5866241455078	620.1027221679688	-153.7460937500001	-206.7304077148438	283.5296020507812	94.02662658691402	-195.4271087646484	609.4561767578125	-112.8575668334962	121.8204574584961	1051.5927734375	-195.4342803955078	162.4032745361328	1075.394409179688	-262.2612304687501	175.4487915039062	1086.352783203125	254.2275085449218	358.5596008300781	925.1148681640625	186.5140991210938	331.58154296875	889.6179809570312	-229.2366333007813	246.4722747802734	1512.751953125	-75.75878143310554	91.38938903808595	1533.074096679688	-89.19033813476571	78.97451782226562	1538.882080078125	47.64113235473624	80.97865295410155	1357.212524414062	124.5537490844726	58.97576904296877	1347.16552734375	-152.8479766845704	70.43110656738281	1295.743041992188	-6.83483886718757	428.2315673828126	911.3253173828125	-254.8962707519531	435.6905822753906	911.6658325195312	274.7680969238281	
1633	13.6	242.6592254638672	1501.802978515625	50.68022155761712	-249.0758056640625	279.7733459472656	171.3660583496093	-39.1074333190918	1158.632690429688	6.875628471374436	-101.1980972290039	612.2446899414062	-72.65856933593756	60.55510330200197	982.55712890625	-138.6202545166016	-188.6838989257812	1353.392578125	17.87195205688466	139.24169921875	1064.746704101562	203.958740234375	336.0462951660156	906.0194702148438	254.5093841552734	26.87725448608398	1429.19970703125	-3.840673685073937	-262.9720153808594	1111.8544921875	-89.40153503417979	35.72482681274415	487.1969604492188	-103.688232421875	-87.51791381835939	158.2834167480469	136.4822082519531	356.0329895019531	938.3590087890625	-177.6006164550781	-395.492919921875	1164.368530273438	-20.41799736022961	-384.1246032714844	1154.564453125	110.6738739013671	-226.8058166503907	1087.330932617188	139.0358734130859	46.5371437072754	913.5736694335938	-35.65653991699224	-113.0851211547852	607.28662109375	77.42523956298822	-129.4460144042969	673.948974609375	185.7829132080078	-130.6622619628906	612.0760498046875	-155.9832305908204	-217.6692657470703	290.1317138671875	92.38481903076168	-183.7079620361328	599.93115234375	-116.0351257324219	121.892578125	1051.7060546875	-195.1129302978516	162.4796447753907	1075.493530273438	-261.9993286132813	175.1620330810547	1086.191528320312	254.597412109375	358.4673767089844	925.1914672851562	186.64111328125	331.5879821777344	889.69384765625	-229.1360473632813	246.4613342285156	1512.686401367188	-76.06629943847663	91.35458374023439	1533.079956054688	-89.12071228027352	79.29866790771484	1538.977661132812	47.75946426391593	81.10795593261717	1357.153198242188	124.7968978881835	59.21566390991213	1347.342407226562	-152.5824127197266	70.53699493408203	1295.822875976562	-6.60504961013801	428.1958007812501	911.3750610351562	-254.8670806884766	435.6498413085937	911.62646484375	274.7919006347656	
